# xmcd
#
# Track frame offsets:
#	150
#	17670
#	29785
#	41752
#	58005
#	67332
#	79752
#	95422
#	105380
#	130607
#	141045
#	151867
#	158375
#	174580
#	198557
#	215882
#
# Disc length: 3085 seconds
#
# Revision: 0
# Processed by: cddbd v1.5.2PL0 Copyright (c) Steve Scherf et al.
# Submitted via: dBpowerAMP V4.0
#
DISCID=dd0c0b10
DTITLE=John Williamson - Let's Laugh With Johnno - Live
DYEAR=1900
DGENRE=Comedy
TTITLE0=Vasectomy Song
TTITLE1=Lillie and NcEnroe
TTITLE2=Sheik Of Scrubby Creek
TTITLE3=Waratah Rock'n' Roll Ball
TTITLE4=I Wish Mate. I Wish
TTITLE5=Full Moon Girl
TTITLE6=Dog With No Hair
TTITLE7=My Dad Snores
TTITLE8=Teach Me To Drive, Dad
TTITLE9=The Bowls (Bush Poem)
TTITLE10=I Still Call The Commercial Home
TTITLE11=Drunken Duncan
TTITLE12=Big Bum On The Toilet Seat
TTITLE13=Boogie With M' Baby
TTITLE14=Bill The Cat
TTITLE15=Crocodile Roll
EXTD=
EXTT0=
EXTT1=
EXTT2=
EXTT3=
EXTT4=
EXTT5=
EXTT6=
EXTT7=
EXTT8=
EXTT9=
EXTT10=
EXTT11=
EXTT12=
EXTT13=
EXTT14=
EXTT15=
PLAYORDER=
